<svg width="163" height="44" viewBox="0 0 163 44" fill="none" xmlns="http://www.w3.org/2000/svg">
<g clip-path="url(#clip0_5048_77196)">
<path d="M1.44064 35.3255C0.805476 35.3255 0.0420771 35.1145 0 34.0998C0 33.423 0.33862 32.9582 1.31341 32.7042C3.2199 32.1544 3.51644 31.3936 3.47437 29.7441V11.4954C3.51644 9.84591 3.2199 9.08514 1.31341 8.5353C0.33862 8.32436 0 7.85849 0 7.18269C0 6.20998 0.805476 5.95605 1.44064 5.95605H7.33043L10.0003 5.91406C10.8479 5.91406 11.8647 6.125 11.9068 7.18269C11.9068 7.85949 11.483 8.36635 10.2117 8.57828C7.75421 9.2131 7.33043 10.0159 7.37251 11.7074V28.2225C7.37251 31.7315 8.6749 32.4933 13.632 32.4933C15.0836 32.4933 16.6265 32.3583 17.8898 31.5786C19.0609 30.8558 19.7081 29.6911 20.4915 28.6044C20.6789 28.3455 20.9033 28.0406 21.0987 27.7777C21.3872 27.3898 21.8621 27.1898 22.3419 27.2528C23.0042 27.3398 23.4981 27.9036 23.4981 28.5694V28.6014C23.4981 29.2912 23.0573 32.0724 22.5102 33.8469C22.1716 34.9036 21.6206 35.2845 20.2221 35.2845H3.51644L1.43964 35.3265L1.44064 35.3255ZM22.1045 42.5564C22.1045 42.3454 22.2738 42.0915 22.7407 41.6266C24.2054 40.1541 25.628 38.6255 27.1487 37.2169C27.5675 36.829 27.9692 36.3992 28.1786 35.8693C28.4111 35.2795 28.2748 34.8166 28.0434 34.2658C27.7699 33.616 27.3902 33.0002 27.0636 32.3723C26.715 31.7015 26.3763 31.0267 26.0457 30.3469C25.3825 28.9833 24.7534 27.6017 24.1533 26.2091C22.9681 23.4559 21.8991 20.6538 20.9173 17.8216C20.4084 16.384 19.9005 15.8762 19.0108 15.4113C18.2054 14.9884 17.8667 14.6925 17.8667 14.1427C17.8667 13.4239 18.2905 13.001 19.3495 13.001H26.5527C27.5274 13.001 27.9081 13.2969 27.9081 14.0157C27.9081 14.5655 27.5695 14.9034 26.5947 15.2423C24.7724 15.8762 24.6882 16.553 25.0269 17.6946C26.3823 22.1763 28.1205 26.4051 30.2384 30.168C30.577 30.7598 30.9587 30.6328 31.2132 30.126C33.2048 26.3201 34.7727 22.1343 36.001 17.8216C36.3817 16.553 36.3396 15.9611 34.9841 15.4963C33.5855 15.0314 33.2048 14.6505 33.2048 14.0167C33.2048 13.4249 33.6286 13.002 34.4331 13.002H40.9591C41.6794 13.002 42.1873 13.3829 42.1873 14.0167C42.1873 14.4816 41.8487 14.8624 41.0853 15.2853C40.1105 15.8352 39.6446 16.469 39.2629 17.6536C37.5678 22.8971 35.6613 28.5624 32.738 34.0588C30.7884 37.6948 29.475 40.401 28.3309 42.1345C27.7799 42.9382 27.3141 43.1492 26.5937 43.1492H22.7377C22.1446 43.1492 22.1015 42.8533 22.1015 42.5574L22.1045 42.5564ZM41.8928 32.4933C40.7066 31.2247 40.8759 29.956 41.8507 28.9843C42.3165 28.5614 42.7824 28.1386 43.2493 28.1386C43.7161 28.1386 43.9275 28.4765 44.3933 29.1113C46.3429 31.7325 48.8004 33.2131 51.6396 33.2131C54.2244 33.2131 55.9195 31.8605 55.9195 29.957C55.9195 28.0536 54.6061 26.617 50.0297 25.8982C43.7161 24.8835 41.5972 22.7691 41.5972 19.2602C41.5972 15.7512 45.1988 12.3682 50.1138 12.3682C53.4189 12.3682 56.766 13.7208 58.3339 15.7512C59.2235 16.8509 58.927 17.9076 58.0794 18.7533C57.5705 19.2612 57.2319 19.5141 56.9353 19.5141C56.6388 19.5141 56.3002 19.3032 55.8764 18.7953C54.012 16.343 52.1055 15.1164 49.3935 15.1164C47.0212 15.1164 45.1567 16.5959 45.1567 18.4994C45.1567 20.4028 46.5553 21.3745 51.2158 22.1783C57.0636 23.151 59.479 25.3924 59.479 29.2392C59.479 33.0861 55.9615 35.9203 50.9624 35.9203C47.5301 35.9203 43.674 34.3558 41.8948 32.4953L41.8928 32.4933ZM61.4686 32.4933C60.2825 31.2247 60.4518 29.956 61.4266 28.9843C61.8924 28.5614 62.3583 28.1386 62.8251 28.1386C63.292 28.1386 63.5034 28.4765 63.9692 29.1113C65.9188 31.7325 68.3763 33.2131 71.2155 33.2131C73.8002 33.2131 75.4953 31.8605 75.4953 29.957C75.4953 28.0536 74.1819 26.617 69.6055 25.8982C63.292 24.8835 61.1731 22.7691 61.1731 19.2602C61.1731 15.7512 64.7747 12.3682 69.6897 12.3682C72.9948 12.3682 76.3419 13.7208 77.9098 15.7512C78.7994 16.8509 78.5028 17.9076 77.6553 18.7533C77.1464 19.2612 76.8077 19.5141 76.5112 19.5141C76.2147 19.5141 75.876 19.3032 75.4523 18.7953C73.5878 16.343 71.6813 15.1164 68.9694 15.1164C66.597 15.1164 64.7326 16.5959 64.7326 18.4994C64.7326 20.4028 66.1312 21.3745 70.7917 22.1783C76.6394 23.151 79.0549 25.3924 79.0549 29.2392C79.0549 33.0861 75.5374 35.9203 70.5383 35.9203C67.106 35.9203 63.2499 34.3558 61.4706 32.4953L61.4686 32.4933ZM79.6039 34.1848C79.6039 33.593 79.9425 33.1701 80.8752 32.8742C82.1045 32.4513 82.401 31.7325 82.3579 30.168V18.1175C82.4 16.553 82.1034 15.8342 80.7049 15.3693C79.7722 15.0734 79.4756 14.6925 79.4756 14.0587C79.5177 13.1709 80.1959 12.959 80.789 12.959L82.4421 13.001H84.3916C85.4937 13.001 85.9174 13.3819 86.214 14.4806C86.3412 15.0304 86.7229 15.1144 87.1457 14.6495C88.5442 13.127 90.6621 12.3662 92.8241 12.3662C96.2564 12.3662 98.9684 14.4376 99.8159 18.3704L102.359 29.8711C102.74 31.5626 103.121 32.1964 104.392 32.7462C105.536 33.2541 105.875 33.634 105.875 34.4377C105.875 34.9876 105.451 35.2835 104.689 35.2835H100.706C98.5867 35.2835 98.5866 34.0149 98.1208 31.0127L96.595 20.7377C96.044 17.1018 94.3489 15.5373 91.4255 15.5373C88.5022 15.5373 86.1709 17.9046 86.1709 20.6957V29.956C86.1288 31.6056 86.4674 32.3663 87.9081 32.7472C89.0101 33.0851 89.3908 33.508 89.3908 34.1428C89.3908 35.0735 88.5432 35.2845 87.7809 35.2845H81.0014C80.3232 35.2845 79.6029 35.0735 79.6029 34.1848H79.6039ZM105.112 28.2245C105.112 23.8458 109.137 20.3598 114.094 20.3598C116.044 20.3598 117.908 20.8697 118.67 20.8697C119.094 20.8697 119.221 20.6997 119.221 20.3169C119.221 17.5957 117.061 15.4283 114.263 15.4283C112.144 15.4283 109.814 16.449 107.442 18.2765C106.806 18.7443 106.256 18.7013 105.916 18.1065C104.687 15.9811 104.857 14.8754 106.552 14.0677C108.544 13.132 111.976 12.3672 114.561 12.3672C120.069 12.3672 122.104 15.3003 123.374 21.1246L125.154 29.3302C125.536 31.1157 126.298 32.4333 127.57 33.2411C128.036 33.539 128.248 33.8789 128.248 34.2188C128.248 34.8136 127.612 35.4514 126.342 35.4944C124.901 35.4944 123.63 34.7716 122.485 33.2841C122.062 32.7312 121.765 32.6892 121.087 33.1991C119.137 34.7716 115.875 35.7074 113.502 35.7074C108.587 35.7074 105.113 32.6043 105.113 28.2245H105.112ZM114.179 32.6463C119.052 32.6463 121.382 30.4779 120.959 28.4795L120.45 26.0562C120.026 23.9728 119.56 23.378 114.942 23.378C111.509 23.378 109.094 25.2914 109.094 28.0116C109.094 30.7318 111.297 32.6453 114.178 32.6453L114.179 32.6463Z" fill="#0B978E"/>
<path d="M160.975 1.88536C160.209 1.10658 159.415 0.781679 158.473 0.862655C158.433 0.865654 158.394 0.871653 158.356 0.88065C158.194 0.91564 158.046 0.992617 157.926 1.10259L157.869 1.15457C157.662 1.34351 157.406 1.57845 157.177 1.83637C156.232 2.89906 155.754 4.17969 155.309 5.5083C154.991 6.45802 154.682 7.47372 154.698 8.52841C154.705 8.98228 154.65 9.40116 154.535 9.77205C154.156 10.9907 154.084 12.2673 154.015 13.501L153.982 14.0748C153.877 15.7723 153.92 17.3938 154.11 18.8954C154.554 22.3994 155.432 25.7544 156.722 28.8655C156.871 29.2254 156.849 29.4783 156.639 29.8352C155.823 31.2198 154.734 32.2705 153.401 32.9573C153.134 33.0952 152.866 33.1932 152.604 33.2492C151.987 33.3821 151.389 33.2972 150.776 32.9873C149.905 32.5484 149.199 32.0016 148.676 31.3627C148.272 30.8699 147.77 30.2561 147.518 29.6512C147.38 29.3203 147.395 28.9444 147.559 28.6205L147.792 28.1607C148.106 27.5469 148.375 27.017 148.609 26.4592L148.765 26.0853C149.221 24.9946 149.694 23.8669 150.017 22.7133C150.225 21.9765 150.317 21.2027 150.406 20.4549C150.448 20.106 150.489 19.7571 150.542 19.4112C150.611 18.9684 150.68 18.5255 150.75 18.0826C150.876 17.2769 151.003 16.4721 151.121 15.6653C151.128 15.6143 151.186 15.4004 151.242 15.1935C151.374 14.7046 151.554 14.0358 151.583 13.7059C151.698 12.4103 151.761 9.6101 151.663 8.99728C151.572 8.42344 151.343 7.11983 151.229 6.70595C151.111 6.28307 150.513 5.51729 149.552 5.1404C149.25 5.02244 148.919 4.99645 148.593 5.06743C148.432 5.10242 148.276 5.1594 148.12 5.24337C147.77 5.43132 147.494 5.73723 147.343 6.10512L147.178 6.49901C146.878 7.2148 146.567 7.95558 146.363 8.73835C146.078 9.82404 145.839 10.9387 145.607 12.0174C145.393 13.0141 145.172 14.0458 144.915 15.0475C144.477 16.765 144.31 18.5895 144.404 20.6229C144.425 21.0668 144.498 21.5096 144.57 21.9395C144.653 22.4403 144.739 22.9592 144.735 23.4601C144.725 24.7107 144.916 25.9103 145.13 27.133C145.167 27.3459 145.34 27.9018 145.508 28.4396L145.601 28.7385C145.706 29.0734 145.686 29.4363 145.545 29.7602L145.42 30.0531C145.135 30.7209 144.84 31.4117 144.416 31.9936C143.998 32.5674 143.275 33.0622 142.644 33.1982C141.564 33.4231 140.602 33.1002 139.862 32.2635C139.676 32.0525 139.612 31.7696 139.693 31.5047C139.719 31.4197 139.747 31.3357 139.776 31.2518C139.82 31.1218 139.864 30.9918 139.898 30.8599C139.988 30.509 140.089 30.1591 140.19 29.8092C140.426 28.9954 140.67 28.1537 140.767 27.3019C140.804 26.975 140.887 26.6641 140.975 26.3352C141.102 25.8623 141.233 25.3735 141.219 24.8237C141.201 24.1039 141.388 23.3861 141.586 22.6263C141.677 22.2774 141.771 21.9175 141.842 21.5606C141.862 21.4636 141.884 21.3657 141.906 21.2677C141.989 20.8948 142.075 20.5099 142.036 20.128C141.968 19.4622 142.031 18.7874 142.091 18.1356C142.116 17.8677 142.141 17.5988 142.157 17.3298C142.331 14.5187 142.236 12.3693 141.85 10.3639C141.673 9.45114 141.455 8.5784 140.73 7.93559C140.539 7.76564 140.268 7.69766 140.005 7.75464C139.986 7.75864 139.967 7.76364 139.948 7.76864C139.517 7.8926 139.103 8.04556 138.775 8.55341C138.68 8.70036 138.587 8.84032 138.495 8.97528C138.059 9.62809 137.681 10.1929 137.419 11.1267C137.344 11.3926 137.268 11.6575 137.191 11.9234C136.873 13.0201 136.545 14.1548 136.388 15.3004C136.288 16.0232 136.25 16.764 136.214 17.4798C136.182 18.0976 136.15 18.7364 136.078 19.3583C135.999 20.0411 135.984 20.6519 136.031 21.2247C136.085 21.8785 136.158 22.5403 136.229 23.1811C136.348 24.2628 136.472 25.3805 136.507 26.4792C136.524 27.038 136.619 27.5778 136.711 28.0987C136.752 28.3326 136.793 28.5656 136.827 28.7995C136.947 29.6193 137.273 30.407 137.59 31.1688C138.092 32.3784 137.999 32.7593 137.012 33.5651C136.714 33.808 136.409 33.964 136.105 34.03C135.445 34.1719 134.789 33.9 134.154 33.2192C132.954 31.9316 132.487 30.2421 132.032 28.5955C131.676 27.3089 131.46 26.5332 131.554 25.1925C131.563 25.0596 131.552 24.6367 131.532 23.9019C131.498 22.6853 131.447 20.8468 131.519 20.132C131.595 19.3742 131.631 18.6025 131.667 17.8557C131.69 17.3628 131.713 16.87 131.748 16.3781C131.79 15.7723 131.932 15.1245 132.071 14.4987C132.177 14.0148 132.287 13.515 132.352 13.0301C132.372 12.8791 132.332 12.7312 132.239 12.6122C132.146 12.4943 132.012 12.4203 131.863 12.4043L131.689 12.3853C131.629 12.3783 131.57 12.3813 131.511 12.3943C131.311 12.4373 131.152 12.5872 131.098 12.7842C130.932 13.385 130.765 14.4157 130.719 14.7176L130.649 15.1655C130.497 16.1292 130.34 17.1259 130.286 18.1166C130.237 19.0213 130.236 19.9411 130.234 20.8308C130.233 21.4426 130.232 22.0545 130.216 22.6663C130.163 24.7077 130.214 27.117 130.985 29.5103C131.447 30.9469 132.084 32.3854 132.93 33.908C133.625 35.1586 135.289 35.5325 136.574 35.2556C136.98 35.1676 137.346 35.0157 137.632 34.8157C138.063 34.5148 138.318 34.1229 138.565 33.744L138.649 33.6181C138.702 33.5371 138.784 33.4821 138.879 33.4611C138.975 33.4401 139.073 33.4571 139.157 33.5091L139.236 33.5581C139.632 33.804 140.017 34.042 140.408 34.2719C141.359 34.8307 142.428 34.7647 143.17 34.6088C144.006 34.4288 144.809 33.815 145.371 32.9253C145.719 32.3764 146.004 31.7986 146.306 31.1878L146.488 30.8209C146.498 30.8009 146.513 30.7889 146.533 30.7849C146.543 30.7829 146.594 30.7749 146.614 30.8339C147.078 32.1605 147.821 33.0872 148.825 33.5871L149.161 33.756C150.362 34.3629 151.605 34.9907 152.914 34.7078C153.201 34.6458 153.486 34.5398 153.76 34.3939C155.376 33.5341 156.586 32.5014 157.46 31.2358C157.492 31.1888 157.528 31.1448 157.565 31.1018C157.593 31.0698 157.625 31.0578 157.648 31.0528C157.706 31.0408 157.766 31.0598 157.806 31.1028C157.846 31.1468 157.995 31.3268 158.217 31.5937C159.042 32.5874 160.758 34.6558 161.733 35.6225C161.986 35.8744 162.239 35.9744 162.484 35.9214C162.564 35.9044 162.644 35.8704 162.719 35.8204C162.92 35.6865 163.028 35.4405 162.994 35.1936C162.935 34.7667 162.644 34.4838 162.396 34.2849C160.838 33.0343 158.875 30.2531 158.704 29.4693C158.553 28.7695 159.099 27.128 159.278 26.5881C159.313 26.4852 159.337 26.4142 159.345 26.3842C159.395 26.1973 159.459 26.0133 159.524 25.8294C159.61 25.5844 159.699 25.3305 159.753 25.0696C160.064 23.588 160.355 22.3924 160.671 21.3057C161.087 19.8751 161.379 18.3885 161.663 16.951L161.778 16.3731C161.897 15.7803 162.033 15.1075 162.052 14.5067C162.067 13.9828 162.145 13.488 162.227 12.9641L162.285 12.5902C162.592 10.5388 162.611 8.43544 162.343 5.97016C162.186 4.51359 161.69 2.61414 160.974 1.88436L160.975 1.88536ZM157.708 27.144C157.674 27.2399 157.637 27.3379 157.601 27.4389C157.557 27.2979 157.514 27.161 157.472 27.026C157.272 26.3892 157.099 25.8394 156.903 25.2855C156.477 24.0869 156.145 22.7793 155.886 21.2857C155.675 20.063 155.522 18.9464 155.418 17.8727L155.399 17.6777C155.316 16.827 155.231 15.9462 155.326 15.0785C155.436 14.0828 155.53 13.0841 155.623 12.0864C155.702 11.2416 155.781 10.3959 155.87 9.55112C155.918 9.09825 155.991 8.63838 156.063 8.19251C156.116 7.85761 156.169 7.52271 156.213 7.18581C156.362 6.04014 156.86 4.98645 157.342 3.96675L157.561 3.49988C157.708 3.18398 157.938 2.90606 158.204 2.58415L158.302 2.46619C158.378 2.37421 158.483 2.31023 158.599 2.28524C158.686 2.26625 158.778 2.27024 158.863 2.29524L159.325 2.4342C159.729 2.55616 160.053 2.86407 160.191 3.25796C160.313 3.60885 160.463 4.01473 160.679 4.37663C160.838 4.64355 160.881 4.92347 160.927 5.21938C160.949 5.35234 160.97 5.4853 161 5.61827C161.061 5.88119 161.09 6.14911 161.121 6.43203C161.147 6.66996 161.174 6.91589 161.221 7.15782C161.424 8.19051 161.301 9.24221 161.183 10.2599C161.151 10.5308 161.12 10.8027 161.094 11.0747C161.055 11.4875 161.003 11.8984 160.95 12.3103C160.897 12.7182 160.846 13.1251 160.806 13.534C160.804 13.5569 160.792 13.6319 160.775 13.7349C160.722 14.0668 160.633 14.6226 160.628 14.8916C160.588 16.815 160.1 18.6974 159.628 20.5179L159.54 20.8588C159.105 22.5423 158.637 24.1798 158.195 25.6984C158.06 26.1623 157.897 26.6171 157.708 27.144ZM146.391 14.5776C146.416 14.2697 146.44 13.9788 146.52 13.6869C146.691 13.0671 147.301 10.7618 147.404 10.1789C147.547 9.35917 147.773 8.53441 148.116 7.58269C148.209 7.32377 148.333 7.09483 148.496 6.8819C148.618 6.72194 148.786 6.61497 148.983 6.57299C149.327 6.49901 149.67 6.63797 149.855 6.92688C150.009 7.16681 150.118 7.45273 150.188 7.80363C150.661 10.1639 150.387 12.5392 150.095 14.5796C150.028 15.0425 149.911 15.5144 149.797 15.9702C149.626 16.66 149.448 17.3738 149.435 18.0916C149.418 19.0513 148.883 22.1574 148.739 22.7583C148.617 23.2671 148.387 23.77 148.167 24.2558C148.104 24.3938 148.042 24.5317 147.981 24.6697C147.75 25.1955 147.497 25.7234 147.251 26.2332L147.085 26.5791C147.014 26.7291 146.939 26.8771 146.863 27.024C146.836 27.077 146.794 27.096 146.764 27.102C146.692 27.117 146.604 27.083 146.577 26.974C146.481 26.5811 146.381 26.1743 146.338 25.7754C146.223 24.7057 146.123 23.614 146.028 22.5593C145.96 21.8115 145.893 21.0638 145.819 20.316C145.642 18.5295 145.954 16.831 146.282 15.4044C146.346 15.1255 146.369 14.8476 146.39 14.5776H146.391ZM137.673 16.0882C137.717 15.2295 137.758 14.4177 138.066 13.6359C138.244 13.1831 138.328 12.7062 138.408 12.2443C138.515 11.6295 138.618 11.0487 138.926 10.5238C139.088 10.2469 139.7 9.38316 139.839 9.18722C139.866 9.17523 139.893 9.16723 139.921 9.16123C140.136 9.11424 140.359 9.23521 140.438 9.44015C140.55 9.73306 140.663 10.045 140.706 10.3509C140.757 10.7058 140.816 11.0637 140.874 11.4216C141.06 12.5562 141.252 13.7299 141.161 14.8486C141.114 15.4304 141.102 16.0212 141.091 16.5931C141.072 17.5488 141.053 18.5375 140.864 19.4902C140.836 19.6292 140.574 21.4946 140.569 21.8485C140.558 22.5203 140.458 23.2251 140.252 24.0659C140.177 24.3688 140.131 24.6777 140.087 24.9766C140.028 25.3765 139.967 25.7894 139.837 26.1783C139.74 26.4682 139.662 26.7651 139.597 27.017C139.328 28.0777 139.095 28.9235 138.802 29.9941L138.78 30.0741C138.764 30.1341 138.718 30.1521 138.692 30.1581C138.682 30.1601 138.594 30.1771 138.558 30.0921C138.14 29.0864 137.991 28.1327 137.876 27.2409C137.716 26.0063 137.618 24.7407 137.524 23.516C137.487 23.0392 137.45 22.5613 137.409 22.0845C137.26 20.323 137.424 18.5885 137.584 17.2749C137.632 16.88 137.652 16.4771 137.672 16.0882H137.673Z" fill="#0B978E"/>
</g>
<defs>
<clipPath id="clip0_5048_77196">
<rect width="163" height="42.2986" fill="white" transform="translate(0 0.850586)"/>
</clipPath>
</defs>
</svg>
